<?xml version="1.0" encoding="utf-8"?>
<!-- Generator: Adobe Illustrator 21.1.0, SVG Export Plug-In . SVG Version: 6.00 Build 0)  -->
<svg version="1.2" baseProfile="tiny" id="Layer_1" xmlns="http://www.w3.org/2000/svg" xmlns:xlink="http://www.w3.org/1999/xlink"
	 x="0px" y="0px" viewBox="0 0 128 128" xml:space="preserve">
<g>
	<rect x="-6.6" y="-4.2" fill="#EF4534" width="138.3" height="138.3"/>
	<g>
		<g>
			<path fill="#FFFFFF" d="M54.6,18.4c1.2,0,2.4,0,3.6,0c1.3,0,2.1,0.8,2.1,2.1c0,2.4,0,4.8,0,7.3c0,1.2-0.8,2.1-2,2.1
				c-2.4,0-4.9,0-7.3,0c-1.2,0-2-0.8-2-2.1c0-2.4,0-4.8,0-7.3c0-1.3,0.8-2.1,2.1-2.1C52.2,18.4,53.4,18.4,54.6,18.4z"/>
			<path fill="#FFFFFF" d="M73.6,33.6c1.2,0,2.4,0,3.6,0c1.3,0,2.1,0.8,2.1,2.1c0,2.4,0,4.8,0,7.2c0,1.3-0.8,2.1-2.1,2.1
				c-2.4,0-4.8,0-7.2,0c-1.3,0-2.1-0.8-2.1-2.1c0-2.4,0-4.8,0-7.2c0-1.3,0.8-2.1,2.1-2.1C71.2,33.6,72.4,33.6,73.6,33.6z"/>
			<path fill="#FFFFFF" d="M58.4,48.7c1.2,0,2.4,0,3.6,0c1.3,0,2.1,0.8,2.1,2.1c0,2.4,0,4.8,0,7.3c0,1.2-0.8,2.1-2,2.1
				c-2.4,0-4.9,0-7.3,0c-1.2,0-2-0.8-2-2.1c0-2.4,0-4.8,0-7.3c0-1.3,0.8-2.1,2.1-2.1c0.6,0,1.2,0,1.9,0
				C57.2,48.7,57.8,48.7,58.4,48.7z"/>
			<path fill="#FFFFFF" d="M86.8,22.2c0,1.3,0,2.5,0,3.7c-8.5,0-17,0-25.6,0c0-1.2,0-2.5,0-3.7C69.8,22.2,78.3,22.2,86.8,22.2z"/>
			<path fill="#FFFFFF" d="M66.9,37.4c0,1.3,0,2.5,0,3.7c-8.5,0-17,0-25.6,0c0-1.2,0-2.5,0-3.7C49.8,37.4,58.3,37.4,66.9,37.4z"/>
			<path fill="#FFFFFF" d="M65,56.3c0-1.2,0-2.5,0-3.7c7.3,0,14.5,0,21.8,0c0,1.2,0,2.5,0,3.7C79.6,56.3,72.3,56.3,65,56.3z"/>
			<path fill="#FFFFFF" d="M51.7,52.6c0,1.3,0,2.5,0,3.7c-3.5,0-6.9,0-10.4,0c0-1.2,0-2.5,0-3.7C44.8,52.6,48.2,52.6,51.7,52.6z"/>
			<path fill="#FFFFFF" d="M41.3,25.9c0-1.2,0-2.5,0-3.7c2.2,0,4.4,0,6.6,0c0,1.2,0,2.5,0,3.7C45.7,25.9,43.5,25.9,41.3,25.9z"/>
			<path fill="#FFFFFF" d="M86.8,41.1c-2.2,0-4.4,0-6.6,0c0-1.2,0-2.5,0-3.7c2.2,0,4.4,0,6.6,0C86.8,38.6,86.8,39.8,86.8,41.1z"/>
		</g>
		<g>
			<path fill="#FFFFFF" d="M18.8,104.6v4.4c0,0.3-0.3,0.5-0.7,0.5c-0.4,0-0.6-0.2-0.6-0.5v-0.7c-0.6,0.7-1.4,1.3-2.6,1.3
				c-1.3,0-2.3-0.7-2.3-2.3c0-1.9,1.6-2.4,4-2.4h0.8v-0.4c0-1-0.5-2.1-1.9-2.1c-1.2,0-1.6,0.5-1.9,0.5c-0.3,0-0.5-0.4-0.5-0.7
				c0-0.5,1.3-1,2.4-1C17.9,101.3,18.8,102.9,18.8,104.6z M17.4,105.8h-0.6c-1.5,0-2.8,0.1-2.8,1.4c0,0.9,0.6,1.3,1.3,1.3
				c1,0,2.1-1,2.1-1.7V105.8z"/>
			<path fill="#FFFFFF" d="M27.2,97v12c0,0.3-0.3,0.5-0.7,0.5c-0.4,0-0.6-0.3-0.6-0.5v-0.7c-0.4,0.7-1.3,1.3-2.4,1.3
				c-1.6,0-3-1.6-3-3.3v-1.7c0-1.8,1.4-3.3,3.1-3.3c1.1,0,1.9,0.6,2.2,1.3V97c0-0.3,0.3-0.5,0.7-0.5C26.9,96.5,27.2,96.7,27.2,97z
				 M21.9,106.3c0,1,0.9,2,1.9,2c1.1,0,1.9-1.1,1.9-1.6v-2.2c0-1.2-1-2-1.9-2c-1.1,0-1.9,1-1.9,2V106.3z"/>
			<path fill="#FFFFFF" d="M34.2,104.5c0-1.2-0.8-2-1.8-2c-0.9,0-1.8,0.7-1.8,2v4.4c0,0.3-0.3,0.5-0.7,0.5c-0.4,0-0.7-0.3-0.7-0.5
				v-7.1c0-0.3,0.3-0.5,0.7-0.5c0.4,0,0.6,0.2,0.6,0.5v0.7c0.4-0.7,1.1-1.3,2.3-1.3c1.1,0,1.9,0.7,2.3,1.7c0.6-1.2,1.6-1.7,2.6-1.7
				c1.5,0,2.9,1.2,2.9,3.3v4.4c0,0.3-0.3,0.5-0.7,0.5c-0.4,0-0.7-0.3-0.7-0.5v-4.4c0-1.3-0.9-2-1.8-2c-0.9,0-1.8,0.8-1.8,1.9v4.5
				c0,0.3-0.4,0.5-0.7,0.5c-0.3,0-0.7-0.2-0.7-0.5V104.5z"/>
			<path fill="#FFFFFF" d="M44.2,98.3c0,0.4-0.4,0.8-0.9,0.8c-0.5,0-0.9-0.4-0.9-0.8c0-0.4,0.4-0.8,0.9-0.8
				C43.8,97.5,44.2,97.9,44.2,98.3z M44.1,101.9v7.1c0,0.3-0.3,0.5-0.7,0.5c-0.4,0-0.7-0.3-0.7-0.5v-7.1c0-0.3,0.3-0.5,0.7-0.5
				C43.7,101.4,44.1,101.6,44.1,101.9z"/>
			<path fill="#FFFFFF" d="M47.5,109c0,0.3-0.3,0.5-0.7,0.5c-0.4,0-0.7-0.3-0.7-0.5v-7.1c0-0.3,0.3-0.5,0.7-0.5
				c0.3,0,0.6,0.2,0.6,0.5v0.7c0.3-0.7,1.1-1.3,2.3-1.3c1.6,0,3,1.5,3,3.3v4.4c0,0.3-0.4,0.5-0.7,0.5c-0.3,0-0.7-0.2-0.7-0.5v-4.4
				c0-1-0.9-2-1.9-2c-0.9,0-1.9,0.8-1.9,2V109z"/>
			<path fill="#FFFFFF" d="M59.7,98.3c0,0.4-0.4,0.8-0.9,0.8c-0.5,0-0.9-0.4-0.9-0.8c0-0.4,0.4-0.8,0.9-0.8
				C59.3,97.5,59.7,97.9,59.7,98.3z M59.5,101.9v7.1c0,0.3-0.3,0.5-0.7,0.5c-0.4,0-0.7-0.3-0.7-0.5v-7.1c0-0.3,0.3-0.5,0.7-0.5
				C59.2,101.4,59.5,101.6,59.5,101.9z"/>
			<path fill="#FFFFFF" d="M62.9,109c0,0.3-0.3,0.5-0.7,0.5c-0.4,0-0.7-0.3-0.7-0.5v-7.1c0-0.3,0.3-0.5,0.7-0.5
				c0.3,0,0.6,0.2,0.6,0.5v0.7c0.3-0.7,1.1-1.3,2.3-1.3c1.6,0,3,1.5,3,3.3v4.4c0,0.3-0.4,0.5-0.7,0.5c-0.3,0-0.7-0.2-0.7-0.5v-4.4
				c0-1-0.9-2-1.9-2c-0.9,0-1.9,0.8-1.9,2V109z"/>
			<path fill="#FFFFFF" d="M71.5,106.9c0,1,0.4,1.3,1.4,1.3h0.5c0.4,0,0.6,0.3,0.6,0.6c0,0.3-0.2,0.6-0.6,0.6h-0.5
				c-1.8,0-2.8-0.8-2.8-2.6v-8.8c0-0.3,0.4-0.5,0.7-0.5c0.4,0,0.7,0.2,0.7,0.5v3.3h2.2c0.3,0,0.4,0.3,0.4,0.6c0,0.3-0.2,0.5-0.4,0.5
				h-2.2V106.9z"/>
			<path fill="#FFFFFF" d="M81.7,104.4c0,1.4-0.8,1.4-1.5,1.4h-3.7v0.5c0,1.3,1,2.1,2.4,2.1c1.3,0,1.6-0.7,2.1-0.7
				c0.3,0,0.6,0.4,0.6,0.6c0,0.4-1,1.2-2.7,1.2c-2.2,0-3.8-1.3-3.8-3.3v-1.8c0-1.7,1.5-3.2,3.4-3.2
				C80.1,101.3,81.7,102.6,81.7,104.4z M79.6,104.9c0.6,0,0.8-0.1,0.8-0.5c0-1-0.8-1.9-1.9-1.9c-1.1,0-2,0.8-2,1.9v0.6H79.6z"/>
			<path fill="#FFFFFF" d="M86.8,102.6c-1.1,0-2.2,1-2.2,2.5v3.9c0,0.3-0.3,0.5-0.7,0.5c-0.4,0-0.7-0.3-0.7-0.5v-7.1
				c0-0.3,0.3-0.5,0.7-0.5c0.4,0,0.6,0.2,0.6,0.5v0.8c0.4-0.7,1.2-1.4,2.2-1.4h0.6c0.3,0,0.5,0.3,0.5,0.6c0,0.3-0.3,0.6-0.5,0.6
				H86.8z"/>
			<path fill="#FFFFFF" d="M90.6,101.4h2.3c0.3,0,0.4,0.3,0.4,0.6c0,0.3-0.2,0.5-0.4,0.5h-2.3v6.5c0,0.3-0.3,0.5-0.7,0.5
				c-0.4,0-0.7-0.2-0.7-0.5v-9.3c0-1.8,1.4-3.2,3-3.2h0.6c0.4,0,0.6,0.3,0.6,0.6c0,0.3-0.2,0.6-0.6,0.6h-0.4c-1.1,0-1.8,0.8-1.8,1.8
				V101.4z"/>
			<path fill="#FFFFFF" d="M100.2,104.6v4.4c0,0.3-0.3,0.5-0.7,0.5c-0.4,0-0.6-0.2-0.6-0.5v-0.7c-0.6,0.7-1.4,1.3-2.6,1.3
				c-1.3,0-2.3-0.7-2.3-2.3c0-1.9,1.6-2.4,4-2.4h0.8v-0.4c0-1-0.5-2.1-1.9-2.1c-1.2,0-1.6,0.5-1.9,0.5c-0.3,0-0.5-0.4-0.5-0.7
				c0-0.5,1.3-1,2.4-1C99.3,101.3,100.2,102.9,100.2,104.6z M98.8,105.8h-0.6c-1.5,0-2.8,0.1-2.8,1.4c0,0.9,0.6,1.3,1.3,1.3
				c1,0,2.1-1,2.1-1.7V105.8z"/>
			<path fill="#FFFFFF" d="M101.9,106.3v-1.7c0-1.8,1.1-3.3,3.4-3.3c1.5,0,2.5,0.7,2.5,1.2c0,0.3-0.3,0.7-0.6,0.7
				c-0.3,0-0.6-0.6-1.8-0.6c-1.4,0-2.1,0.8-2.1,2v1.7c0,1.3,0.7,2,2.1,2c1.2,0,1.5-0.6,1.9-0.6c0.4,0,0.6,0.4,0.6,0.7
				c0,0.5-1.1,1.2-2.6,1.2C102.9,109.6,101.9,108.2,101.9,106.3z"/>
			<path fill="#FFFFFF" d="M115.6,104.4c0,1.4-0.8,1.4-1.5,1.4h-3.7v0.5c0,1.3,1,2.1,2.4,2.1c1.3,0,1.6-0.7,2.1-0.7
				c0.3,0,0.6,0.4,0.6,0.6c0,0.4-1,1.2-2.7,1.2c-2.2,0-3.8-1.3-3.8-3.3v-1.8c0-1.7,1.5-3.2,3.4-3.2
				C114,101.3,115.6,102.6,115.6,104.4z M113.5,104.9c0.6,0,0.8-0.1,0.8-0.5c0-1-0.8-1.9-1.9-1.9c-1.1,0-2,0.8-2,1.9v0.6H113.5z"/>
		</g>
		<g>
			<path fill="#FFFFFF" d="M31.1,86.4c-0.1,0.2-0.3,0.3-0.6,0.3c-0.3,0-0.5-0.1-0.6-0.3l-1.7-5l-1.6,5c-0.1,0.2-0.3,0.4-0.6,0.4
				c-0.3,0-0.5-0.1-0.6-0.4l-2.6-7c0-0.1-0.1-0.2-0.1-0.3c0-0.4,0.5-0.6,0.9-0.6c0.2,0,0.4,0.1,0.5,0.3l2.1,5.7l1.6-5.2
				c0.1-0.3,0.3-0.3,0.5-0.3c0.3,0,0.5,0.1,0.5,0.3l1.6,5.2l2.1-5.8c0.1-0.2,0.2-0.3,0.4-0.3c0.4,0,0.9,0.2,0.9,0.6
				c0,0.1,0,0.2-0.1,0.3L31.1,86.4z"/>
			<path fill="#FFFFFF" d="M36.4,79v0.7c0.4-0.7,1.2-1.3,2.3-1.3c1.7,0,3.1,1.5,3.1,3.3v1.7c0,1.7-1.4,3.3-3,3.3
				c-1,0-1.9-0.6-2.3-1.3V90c0,0.3-0.3,0.5-0.7,0.5c-0.4,0-0.7-0.3-0.7-0.5V79c0-0.3,0.3-0.5,0.7-0.5C36.1,78.5,36.4,78.7,36.4,79z
				 M40.3,81.7c0-1-0.9-2-2-2c-0.9,0-1.9,0.8-1.9,2v2.2c0,0.5,0.8,1.6,1.9,1.6c1,0,1.9-1,1.9-2V81.7z"/>
			<path fill="#FFFFFF" d="M53.6,83.5v-1.9c0-1.8,1-3.2,3.2-3.2c1.4,0,2.3,0.6,2.3,1c0,0.2-0.2,0.4-0.4,0.4c-0.3,0-0.6-0.7-1.9-0.7
				c-1.6,0-2.4,0.9-2.4,2.4v1.9c0,1.5,0.8,2.4,2.4,2.4c1.4,0,1.7-0.7,2-0.7c0.2,0,0.4,0.2,0.4,0.4c0,0.4-0.9,1.1-2.4,1.1
				C54.6,86.7,53.6,85.3,53.6,83.5z"/>
			<path fill="#FFFFFF" d="M60.7,83.6v-4.7c0-0.2,0.2-0.4,0.4-0.4c0.2,0,0.4,0.2,0.4,0.4v4.7c0,1.2,1,2.3,2.3,2.3
				c1.3,0,2.3-1.1,2.3-2.3v-4.7c0-0.2,0.2-0.3,0.4-0.3c0.2,0,0.4,0.2,0.4,0.3v4.7c0,1.7-1.4,3.1-3.1,3.1
				C62.1,86.7,60.7,85.2,60.7,83.6z"/>
			<path fill="#FFFFFF" d="M73.1,84.6c0-2.5-4.3-1.1-4.3-3.9c0-1,0.8-2.3,2.6-2.3c1.1,0,2.2,0.4,2.2,0.8c0,0.2-0.2,0.4-0.4,0.4
				c-0.2,0-0.8-0.5-1.8-0.5c-1.4,0-1.8,0.9-1.8,1.5c0,2.1,4.3,0.8,4.3,3.9c0,1.3-1,2.1-2.7,2.1c-1.6,0-2.6-0.7-2.6-1.2
				c0-0.2,0.2-0.4,0.3-0.4c0.3,0,0.7,0.8,2.3,0.8C72.5,85.9,73.1,85.3,73.1,84.6z"/>
			<path fill="#FFFFFF" d="M76.4,84.1c0,1.2,0.5,1.7,1.8,1.7h0.4c0.2,0,0.4,0.2,0.4,0.4c0,0.2-0.2,0.4-0.4,0.4h-0.4
				c-1.7,0-2.6-0.7-2.6-2.4V75c0-0.2,0.2-0.4,0.4-0.4c0.2,0,0.4,0.2,0.4,0.4v3.6h2.3c0.2,0,0.3,0.2,0.3,0.4c0,0.2-0.2,0.4-0.3,0.4
				h-2.3V84.1z"/>
			<path fill="#FFFFFF" d="M86.2,81.5v2c0,1.7-1.5,3.2-3.1,3.2S80,85.2,80,83.5v-2c0-1.7,1.4-3.1,3.1-3.1
				C84.8,78.4,86.2,79.8,86.2,81.5z M85.4,81.5c0-1.2-1-2.3-2.3-2.3c-1.3,0-2.3,1.2-2.3,2.3v2c0,1.2,1,2.4,2.3,2.4
				c1.3,0,2.3-1.2,2.3-2.4V81.5z"/>
			<path fill="#FFFFFF" d="M93.3,81.5c0-1.3-0.9-2.3-2.1-2.3c-1.1,0-2.2,0.9-2.2,2.3v4.7c0,0.2-0.2,0.4-0.4,0.4
				c-0.2,0-0.4-0.2-0.4-0.4v-7.4c0-0.2,0.2-0.3,0.4-0.3c0.2,0,0.4,0.1,0.4,0.3v0.9c0.4-0.7,1.1-1.3,2.3-1.3c1.1,0,2.1,0.7,2.5,1.7
				c0.6-1.2,1.6-1.7,2.6-1.7c1.5,0,2.8,1.1,2.8,3.1v4.7c0,0.2-0.2,0.4-0.4,0.4c-0.2,0-0.4-0.2-0.4-0.4v-4.7c0-1.6-1.1-2.3-2.1-2.3
				c-1.1,0-2.2,0.9-2.2,2.3v4.8c0,0.3-0.2,0.4-0.4,0.4c-0.2,0-0.4-0.1-0.4-0.4V81.5z"/>
			<path fill="#FFFFFF" d="M48,81.8c1.3,0,1.4-0.7,1.4-1.3c0-0.5-0.1-1-0.1-1.5c-0.1-0.5-0.1-1-0.1-1.5c0-1.6,1.1-2.3,2.6-2.3H52v1
				h-0.3c-1,0-1.4,0.6-1.4,1.5c0,0.4,0.1,0.8,0.1,1.3c0.1,0.4,0.1,0.9,0.1,1.3c0,1.1-0.5,1.7-1.3,1.9v0c0.8,0.2,1.3,0.8,1.3,1.9
				c0,0.5-0.1,0.9-0.1,1.3c-0.1,0.4-0.1,0.9-0.1,1.3c0,1,0.4,1.5,1.4,1.5H52v1h-0.4c-1.5,0-2.6-0.6-2.6-2.4c0-0.5,0.1-1,0.1-1.5
				c0.1-0.5,0.1-1,0.1-1.4c0-0.5-0.2-1.3-1.4-1.3V81.8z"/>
			<path fill="#FFFFFF" d="M105.4,82.7c-1.3,0-1.4,0.8-1.4,1.3c0,0.5,0.1,1,0.1,1.4c0.1,0.5,0.1,1,0.1,1.5c0,1.8-1.1,2.4-2.6,2.4
				h-0.4v-1h0.3c1,0,1.4-0.5,1.4-1.5c0-0.4-0.1-0.8-0.1-1.3c-0.1-0.4-0.1-0.9-0.1-1.3c0-1.1,0.5-1.7,1.3-1.9v0
				c-0.8-0.2-1.3-0.8-1.3-1.9c0-0.5,0.1-0.9,0.1-1.3c0.1-0.4,0.1-0.9,0.1-1.3c0-1-0.4-1.5-1.4-1.5h-0.3v-1h0.4
				c1.5,0,2.6,0.7,2.6,2.3c0,0.5-0.1,1-0.1,1.5c-0.1,0.5-0.1,1-0.1,1.5c0,0.6,0.2,1.3,1.4,1.3V82.7z"/>
		</g>
	</g>
</g>
</svg>
